<svg width="914" height="669" viewBox="0 0 914 669" fill="none" xmlns="http://www.w3.org/2000/svg">
<g clip-path="url(#clip0_10_87)" filter="url(#filter0_d_10_87)">
<g filter="url(#filter1_d_10_87)">
<mask id="path-1-inside-1_10_87" fill="white">
<path d="M570.004 104.42C570.267 104.862 574.91 113.164 580.359 122.926C585.866 132.611 590.309 140.941 590.228 141.36C590.157 141.846 577.688 163.314 562.466 189.165L534.739 236.217L531.38 237.072C524.922 238.678 369.997 273.821 360.719 275.734C348.734 278.278 315.683 282.667 305.188 283.108C290.023 283.76 269.654 283.673 264.191 283.037C259.138 282.414 250.282 280.322 247.812 279.152C246.938 278.723 246.862 277.644 247.219 270.584C247.511 266.12 247.821 261.789 247.906 260.893C248.045 259.376 248.045 259.376 239.348 260.531L230.583 261.695L228.529 265.713C227.391 267.906 226.275 269.757 226.074 269.783C225.405 269.872 209.608 260.123 197.593 252.187C176.33 238.193 138.136 211.537 115.278 194.76C110.454 191.247 105.987 188.368 105.385 188.448C103.98 188.635 78.878 198.027 78.5387 198.549C78.3558 198.71 78.8236 199.669 79.559 200.592C84.7424 207.325 174.664 327.674 175.114 328.499C175.564 329.324 175.332 329.628 174.127 329.787C171.25 330.17 167.681 332.005 167.823 333.076C167.895 333.611 168.781 335.672 169.792 337.648C170.813 339.691 171.663 341.485 171.699 341.752C171.806 342.555 166.849 344.711 143.697 353.913C85.6328 377.079 52.2511 390.771 43.534 394.856C35.4594 398.652 33.4908 401.773 37.0926 405.312C39.6648 407.762 43.344 408.294 54.5166 407.832L65.0113 407.392L86.0625 399.286C97.6565 394.818 112.931 388.841 120.051 386.057C127.17 383.274 139.282 378.602 146.919 375.613C154.556 372.625 167.702 367.543 176.116 364.247L191.323 358.278L201.531 360.804C221.612 365.899 258.715 373.568 279.863 376.955C290.231 378.642 290.374 378.691 322.892 377.982C343.668 377.538 347.039 377.294 362.008 375.171C371.032 373.904 380.305 372.469 382.687 371.948C388.245 370.734 387.611 371.09 370.712 379.189C354.706 386.83 304.392 410.94 281.93 421.753C273.347 425.82 259.335 432.583 250.693 436.726C242.052 440.87 227.973 447.641 219.331 451.784C210.69 455.928 196.677 462.691 188.161 466.749C179.587 470.883 168.893 475.98 164.414 478.141L156.224 482.088L152.38 479.807C150.244 478.592 143.895 474.874 138.202 471.477C129.472 466.236 127.447 465.347 125.507 465.605C122.764 465.969 99.48 471.104 99.2479 471.407C99.123 471.492 104.602 475.326 111.277 479.954C124.598 489.011 132.413 495.054 137.611 500.355C143.981 506.794 149.212 507.734 165.871 505.522C175.764 504.14 177.879 503.655 182.05 501.739C184.686 500.572 194.706 496.042 204.217 491.783C231.724 479.483 262.702 465.634 318.6 440.509C337.363 432.094 437.894 386.745 449.649 381.439C452.152 380.29 452.286 380.272 456.013 382.705C459.95 385.178 461.435 385.593 461.23 384.054C460.902 381.579 466.242 378.215 471.519 377.446L473.459 377.188L470.808 380.808C466.684 386.667 465.718 390.676 468.099 392.198C469.142 392.876 470.471 392.632 474.477 391.01C475.838 390.489 476.293 390.837 478.089 393.595C480.664 397.61 486.362 401.551 491.134 402.62C495.562 403.666 515.445 402.659 521.57 401.097C523.818 400.595 533.323 398.856 542.646 397.277C553.574 395.486 560.403 394.102 561.862 393.296C565.747 391.282 574.779 383.411 576.765 380.423C579.082 376.848 581.624 367.795 581.622 363.166C581.633 359.147 580.645 355.806 577.299 348.557C574.395 342.066 570.543 338.696 564.799 337.485C562.761 337.006 561.125 336.475 561.098 336.274C561.071 336.073 566.001 334.738 572.134 333.243C578.209 331.823 591.93 328.503 602.626 325.994C613.314 323.417 634.35 318.785 649.262 315.716C712.601 302.539 783.569 286.307 812.139 278.428C834.202 272.298 848.434 264.621 865.947 249.36C876.317 240.289 882.387 232.674 883.054 227.956C883.65 223.724 882.594 220.392 879.795 217.768C876.683 214.845 865.465 209.322 854.023 205.19C848.801 203.296 843.316 200.961 841.76 200.01C836.966 196.92 829.14 194.586 816.997 192.68C814.054 192.218 810.856 191.782 807.387 191.366C781.092 188.185 770.71 187.93 755.188 189.991C745.821 191.235 719.955 195.895 703.246 199.271C681.438 203.733 641.168 212.212 629.134 214.9C621.069 216.719 613.589 218.326 612.385 218.485L610.244 218.77L610.82 216.446C611.204 215.238 615.215 196.731 619.731 175.365C627.014 141.513 627.896 136.358 627.009 135.318C626.443 134.644 618.62 126.492 609.566 117.277L593.113 100.534L581.338 102.098C572.172 103.315 569.656 103.853 570.004 104.42Z"/>
</mask>
<path d="M570.004 104.42C570.267 104.862 574.91 113.164 580.359 122.926C585.866 132.611 590.309 140.941 590.228 141.36C590.157 141.846 577.688 163.314 562.466 189.165L534.739 236.217L531.38 237.072C524.922 238.678 369.997 273.821 360.719 275.734C348.734 278.278 315.683 282.667 305.188 283.108C290.023 283.76 269.654 283.673 264.191 283.037C259.138 282.414 250.282 280.322 247.812 279.152C246.938 278.723 246.862 277.644 247.219 270.584C247.511 266.12 247.821 261.789 247.906 260.893C248.045 259.376 248.045 259.376 239.348 260.531L230.583 261.695L228.529 265.713C227.391 267.906 226.275 269.757 226.074 269.783C225.405 269.872 209.608 260.123 197.593 252.187C176.33 238.193 138.136 211.537 115.278 194.76C110.454 191.247 105.987 188.368 105.385 188.448C103.98 188.635 78.878 198.027 78.5387 198.549C78.3558 198.71 78.8236 199.669 79.559 200.592C84.7424 207.325 174.664 327.674 175.114 328.499C175.564 329.324 175.332 329.628 174.127 329.787C171.25 330.17 167.681 332.005 167.823 333.076C167.895 333.611 168.781 335.672 169.792 337.648C170.813 339.691 171.663 341.485 171.699 341.752C171.806 342.555 166.849 344.711 143.697 353.913C85.6328 377.079 52.2511 390.771 43.534 394.856C35.4594 398.652 33.4908 401.773 37.0926 405.312C39.6648 407.762 43.344 408.294 54.5166 407.832L65.0113 407.392L86.0625 399.286C97.6565 394.818 112.931 388.841 120.051 386.057C127.17 383.274 139.282 378.602 146.919 375.613C154.556 372.625 167.702 367.543 176.116 364.247L191.323 358.278L201.531 360.804C221.612 365.899 258.715 373.568 279.863 376.955C290.231 378.642 290.374 378.691 322.892 377.982C343.668 377.538 347.039 377.294 362.008 375.171C371.032 373.904 380.305 372.469 382.687 371.948C388.245 370.734 387.611 371.09 370.712 379.189C354.706 386.83 304.392 410.94 281.93 421.753C273.347 425.82 259.335 432.583 250.693 436.726C242.052 440.87 227.973 447.641 219.331 451.784C210.69 455.928 196.677 462.691 188.161 466.749C179.587 470.883 168.893 475.98 164.414 478.141L156.224 482.088L152.38 479.807C150.244 478.592 143.895 474.874 138.202 471.477C129.472 466.236 127.447 465.347 125.507 465.605C122.764 465.969 99.48 471.104 99.2479 471.407C99.123 471.492 104.602 475.326 111.277 479.954C124.598 489.011 132.413 495.054 137.611 500.355C143.981 506.794 149.212 507.734 165.871 505.522C175.764 504.14 177.879 503.655 182.05 501.739C184.686 500.572 194.706 496.042 204.217 491.783C231.724 479.483 262.702 465.634 318.6 440.509C337.363 432.094 437.894 386.745 449.649 381.439C452.152 380.29 452.286 380.272 456.013 382.705C459.95 385.178 461.435 385.593 461.23 384.054C460.902 381.579 466.242 378.215 471.519 377.446L473.459 377.188L470.808 380.808C466.684 386.667 465.718 390.676 468.099 392.198C469.142 392.876 470.471 392.632 474.477 391.01C475.838 390.489 476.293 390.837 478.089 393.595C480.664 397.61 486.362 401.551 491.134 402.62C495.562 403.666 515.445 402.659 521.57 401.097C523.818 400.595 533.323 398.856 542.646 397.277C553.574 395.486 560.403 394.102 561.862 393.296C565.747 391.282 574.779 383.411 576.765 380.423C579.082 376.848 581.624 367.795 581.622 363.166C581.633 359.147 580.645 355.806 577.299 348.557C574.395 342.066 570.543 338.696 564.799 337.485C562.761 337.006 561.125 336.475 561.098 336.274C561.071 336.073 566.001 334.738 572.134 333.243C578.209 331.823 591.93 328.503 602.626 325.994C613.314 323.417 634.35 318.785 649.262 315.716C712.601 302.539 783.569 286.307 812.139 278.428C834.202 272.298 848.434 264.621 865.947 249.36C876.317 240.289 882.387 232.674 883.054 227.956C883.65 223.724 882.594 220.392 879.795 217.768C876.683 214.845 865.465 209.322 854.023 205.19C848.801 203.296 843.316 200.961 841.76 200.01C836.966 196.92 829.14 194.586 816.997 192.68C814.054 192.218 810.856 191.782 807.387 191.366C781.092 188.185 770.71 187.93 755.188 189.991C745.821 191.235 719.955 195.895 703.246 199.271C681.438 203.733 641.168 212.212 629.134 214.9C621.069 216.719 613.589 218.326 612.385 218.485L610.244 218.77L610.82 216.446C611.204 215.238 615.215 196.731 619.731 175.365C627.014 141.513 627.896 136.358 627.009 135.318C626.443 134.644 618.62 126.492 609.566 117.277L593.113 100.534L581.338 102.098C572.172 103.315 569.656 103.853 570.004 104.42Z" fill="url(#paint0_linear_10_87)"/>
<path d="M801.383 214.917L802.024 216.812L801.356 217.038L800.694 216.795L801.383 214.917ZM787.058 209.666L786.369 211.544L782.315 210.057L786.071 207.926L787.058 209.666ZM821.13 208.23L820.488 206.335L821.13 208.23ZM801.383 214.917L800.694 216.795L786.369 211.544L787.058 209.666L787.746 207.788L802.071 213.04L801.383 214.917ZM787.058 209.666L786.071 207.926L816.011 190.941L816.997 192.68L817.984 194.42L788.045 211.405L787.058 209.666ZM840.878 201.542L841.519 203.436L821.772 210.124L821.13 208.23L820.488 206.335L840.236 199.647L840.878 201.542ZM821.13 208.23L821.772 210.124L802.024 216.812L801.383 214.917L800.741 213.023L820.488 206.335L821.13 208.23ZM570.004 104.42L573.413 102.328L573.427 102.351L573.441 102.374L570.004 104.42ZM580.359 122.926L576.882 124.903L576.874 124.889L576.866 124.875L580.359 122.926ZM590.228 141.36L586.271 140.777L586.284 140.691L586.3 140.605L590.228 141.36ZM562.466 189.165L565.913 191.195L565.912 191.196L562.466 189.165ZM534.739 236.217L538.185 238.248L537.34 239.683L535.726 240.094L534.739 236.217ZM531.38 237.072L532.367 240.948L532.356 240.951L532.346 240.953L531.38 237.072ZM360.719 275.734L359.888 271.821L359.9 271.818L359.911 271.816L360.719 275.734ZM305.188 283.108L305.016 279.111L305.02 279.111L305.188 283.108ZM264.191 283.037L263.729 287.01L263.715 287.008L263.702 287.007L264.191 283.037ZM247.812 279.152L246.1 282.767L246.075 282.755L246.05 282.743L247.812 279.152ZM247.219 270.584L243.224 270.383L243.225 270.353L243.227 270.323L247.219 270.584ZM247.906 260.893L251.889 261.258L251.888 261.271L247.906 260.893ZM230.583 261.695L227.021 259.874L227.976 258.006L230.056 257.73L230.583 261.695ZM228.529 265.713L232.091 267.533L232.085 267.544L232.08 267.555L228.529 265.713ZM197.593 252.187L199.792 248.845L199.797 248.849L197.593 252.187ZM115.278 194.76L117.633 191.526L117.639 191.531L117.645 191.535L115.278 194.76ZM78.5387 198.549L81.892 200.73L81.5912 201.192L81.1763 201.556L78.5387 198.549ZM79.559 200.592L82.6882 198.101L82.7086 198.126L82.7285 198.152L79.559 200.592ZM169.792 337.648L173.353 335.826L173.362 335.844L173.371 335.861L169.792 337.648ZM143.697 353.913L142.215 350.198L142.22 350.196L143.697 353.913ZM43.534 394.856L41.8324 391.236L41.8366 391.234L43.534 394.856ZM37.0926 405.312L34.3338 408.208L34.3114 408.187L34.2893 408.165L37.0926 405.312ZM54.5166 407.832L54.6843 411.828L54.682 411.829L54.5166 407.832ZM65.0113 407.392L66.4487 411.124L65.8355 411.361L65.179 411.388L65.0113 407.392ZM86.0625 399.286L87.5007 403.018L87.4999 403.018L86.0625 399.286ZM176.116 364.247L177.577 367.97L177.575 367.971L176.116 364.247ZM191.323 358.278L189.862 354.555L191.048 354.09L192.284 354.395L191.323 358.278ZM201.531 360.804L202.492 356.921L202.503 356.924L202.515 356.927L201.531 360.804ZM279.863 376.955L280.495 373.006L280.505 373.007L279.863 376.955ZM322.892 377.982L322.805 373.983L322.807 373.983L322.892 377.982ZM362.008 375.171L361.447 371.21L361.453 371.209L362.008 375.171ZM382.687 371.948L381.833 368.04L382.687 371.948ZM370.712 379.189L372.441 382.796L372.435 382.799L370.712 379.189ZM281.93 421.753L283.665 425.357L283.654 425.362L283.643 425.368L281.93 421.753ZM188.161 466.749L186.424 463.146L186.432 463.142L186.44 463.138L188.161 466.749ZM164.414 478.141L166.152 481.743L166.151 481.744L164.414 478.141ZM156.224 482.088L157.96 485.691L156.027 486.623L154.182 485.528L156.224 482.088ZM152.38 479.807L154.357 476.329L154.39 476.348L154.422 476.367L152.38 479.807ZM138.202 471.477L136.152 474.912L136.143 474.906L138.202 471.477ZM99.2479 471.407L102.424 473.838L102.029 474.354L101.492 474.718L99.2479 471.407ZM111.277 479.954L109.028 483.262L109.012 483.252L108.997 483.241L111.277 479.954ZM137.611 500.355L134.767 503.168L134.761 503.162L134.755 503.155L137.611 500.355ZM165.871 505.522L166.425 509.483L166.411 509.485L166.398 509.487L165.871 505.522ZM182.05 501.739L180.381 498.104L180.406 498.093L180.431 498.082L182.05 501.739ZM204.217 491.783L202.583 488.132L202.584 488.131L204.217 491.783ZM318.6 440.509L316.96 436.861L316.963 436.859L318.6 440.509ZM449.649 381.439L451.318 385.074L451.307 385.08L451.295 385.085L449.649 381.439ZM456.013 382.705L453.885 386.092L453.856 386.073L453.827 386.054L456.013 382.705ZM471.519 377.446L470.942 373.488L470.967 373.484L470.992 373.481L471.519 377.446ZM473.459 377.188L472.932 373.223L482.224 371.989L476.686 379.552L473.459 377.188ZM470.808 380.808L467.537 378.506L467.559 378.475L467.581 378.445L470.808 380.808ZM468.099 392.198L470.254 388.828L470.267 388.836L470.28 388.844L468.099 392.198ZM474.477 391.01L472.977 387.302L473.012 387.288L473.047 387.275L474.477 391.01ZM478.089 393.595L481.44 391.411L481.448 391.423L481.455 391.435L478.089 393.595ZM491.134 402.62L492.008 398.716L492.031 398.722L492.053 398.727L491.134 402.62ZM521.57 401.097L520.581 397.221L520.639 397.207L520.697 397.194L521.57 401.097ZM542.646 397.277L541.978 393.334L541.988 393.332L541.998 393.33L542.646 397.277ZM561.862 393.296L559.926 389.795L559.973 389.769L560.021 389.745L561.862 393.296ZM576.765 380.423L580.122 382.598L580.109 382.618L580.096 382.638L576.765 380.423ZM581.622 363.166L577.622 363.167L577.622 363.155L581.622 363.166ZM577.299 348.557L573.667 350.233L573.658 350.212L573.648 350.191L577.299 348.557ZM564.799 337.485L563.974 341.399L563.929 341.389L563.885 341.379L564.799 337.485ZM572.134 333.243L571.186 329.357L571.205 329.352L571.224 329.348L572.134 333.243ZM602.626 325.994L603.564 329.882L603.552 329.885L603.54 329.888L602.626 325.994ZM649.262 315.716L650.076 319.632L650.068 319.634L649.262 315.716ZM812.139 278.428L813.21 282.282L813.203 282.284L812.139 278.428ZM865.947 249.36L868.581 252.37L868.575 252.375L865.947 249.36ZM883.054 227.956L887.015 228.513L887.015 228.516L883.054 227.956ZM879.795 217.768L877.059 220.686L877.056 220.683L879.795 217.768ZM854.023 205.19L852.664 208.952L852.659 208.95L854.023 205.19ZM841.76 200.01L839.675 203.423L839.634 203.398L839.593 203.372L841.76 200.01ZM807.387 191.366L806.911 195.337L806.907 195.337L807.387 191.366ZM703.246 199.271L702.444 195.352L702.453 195.35L703.246 199.271ZM629.134 214.9L628.253 210.998L628.262 210.996L629.134 214.9ZM610.244 218.77L610.77 222.735L604.946 223.508L606.361 217.806L610.244 218.77ZM610.82 216.446L606.938 215.483L606.969 215.358L607.008 215.234L610.82 216.446ZM619.731 175.365L615.817 174.538L615.819 174.531L615.82 174.524L619.731 175.365ZM627.009 135.318L623.966 137.914L623.956 137.903L623.946 137.891L627.009 135.318ZM609.566 117.277L612.419 114.473L612.42 114.474L609.566 117.277ZM593.113 100.534L592.587 96.569L594.567 96.3061L595.966 97.7305L593.113 100.534ZM816.997 192.68L816.377 196.632L816.997 192.68ZM570.004 104.42L573.441 102.374C573.742 102.879 578.434 111.271 583.852 120.976L580.359 122.926L576.866 124.875C574.142 119.995 571.62 115.48 569.746 112.131C568.809 110.456 568.034 109.073 567.478 108.083C567.2 107.587 566.978 107.192 566.817 106.908C566.737 106.765 566.674 106.653 566.627 106.572C566.573 106.477 566.56 106.454 566.567 106.466L570.004 104.42ZM580.359 122.926L583.836 120.948C586.603 125.814 589.108 130.349 590.916 133.731C591.818 135.418 592.561 136.843 593.079 137.888C593.334 138.404 593.558 138.872 593.722 139.251C593.801 139.433 593.896 139.662 593.977 139.899C594.016 140.012 594.078 140.206 594.13 140.441C594.146 140.514 594.325 141.234 594.156 142.114L590.228 141.36L586.3 140.605C586.136 141.459 586.312 142.138 586.315 142.154C586.354 142.332 586.396 142.454 586.405 142.481C586.427 142.545 586.43 142.543 586.384 142.438C586.3 142.243 586.146 141.916 585.911 141.441C585.446 140.504 584.749 139.162 583.862 137.504C582.093 134.195 579.623 129.723 576.882 124.903L580.359 122.926ZM590.228 141.36L594.185 141.943C594.107 142.473 593.929 142.886 593.928 142.888C593.88 143.006 593.834 143.107 593.806 143.167C593.746 143.295 593.679 143.426 593.62 143.539C593.499 143.773 593.335 144.075 593.141 144.426C592.75 145.135 592.187 146.133 591.476 147.38C590.051 149.879 588.004 153.427 585.488 157.759C580.454 166.428 573.527 178.265 565.913 191.195L562.466 189.165L559.019 187.136C566.627 174.215 573.546 162.392 578.57 153.742C581.082 149.415 583.117 145.889 584.526 143.418C585.232 142.18 585.773 141.22 586.137 140.56C586.321 140.227 586.447 139.993 586.523 139.847C586.564 139.769 586.573 139.749 586.565 139.765C586.563 139.77 586.537 139.825 586.504 139.908C586.487 139.949 586.455 140.03 586.421 140.136C586.396 140.211 586.319 140.453 586.271 140.777L590.228 141.36ZM562.466 189.165L565.912 191.196L538.185 238.248L534.739 236.217L531.293 234.186L559.02 187.135L562.466 189.165ZM534.739 236.217L535.726 240.094L532.367 240.948L531.38 237.072L530.394 233.195L533.753 232.341L534.739 236.217ZM531.38 237.072L532.346 240.953C525.831 242.574 370.854 277.728 361.527 279.651L360.719 275.734L359.911 271.816C369.14 269.913 524.012 234.783 530.415 233.19L531.38 237.072ZM360.719 275.734L361.55 279.646C349.381 282.23 316.106 286.653 305.356 287.104L305.188 283.108L305.02 279.111C315.259 278.681 348.086 274.327 359.888 271.821L360.719 275.734ZM305.188 283.108L305.36 287.104C290.203 287.755 269.544 287.687 263.729 287.01L264.191 283.037L264.654 279.063C269.765 279.659 289.843 279.764 305.016 279.111L305.188 283.108ZM264.191 283.037L263.702 287.007C260.976 286.671 257.343 285.957 254.111 285.192C251.013 284.458 247.774 283.56 246.1 282.767L247.812 279.152L249.524 275.537C250.319 275.914 252.744 276.647 255.955 277.407C259.032 278.136 262.353 278.78 264.68 279.067L264.191 283.037ZM247.812 279.152L246.05 282.743C245.093 282.274 244.212 281.488 243.663 280.29C243.232 279.348 243.114 278.368 243.063 277.631C242.96 276.132 243.05 273.821 243.224 270.383L247.219 270.584L251.214 270.786C251.031 274.407 250.981 276.166 251.044 277.078C251.077 277.548 251.12 277.359 250.937 276.961C250.823 276.71 250.633 276.403 250.338 276.111C250.047 275.822 249.759 275.652 249.573 275.561L247.812 279.152ZM247.219 270.584L243.227 270.323C243.518 265.882 243.832 261.483 243.924 260.514L247.906 260.893L251.888 261.271C251.81 262.095 251.504 266.357 251.21 270.845L247.219 270.584ZM247.906 260.893L243.923 260.527C243.947 260.265 243.933 260.356 243.936 260.497C243.94 260.656 243.967 261.33 244.415 262.082C244.926 262.939 245.66 263.373 246.172 263.562C246.588 263.715 246.862 263.711 246.772 263.707C246.589 263.699 246.067 263.721 244.825 263.862C243.651 263.995 242.065 264.206 239.874 264.497L239.348 260.531L238.821 256.566C240.979 256.28 242.655 256.057 243.922 255.913C245.122 255.777 246.223 255.676 247.109 255.714C247.685 255.738 250.006 255.838 251.287 257.986C251.851 258.933 251.922 259.848 251.934 260.292C251.945 260.718 251.9 261.142 251.889 261.258L247.906 260.893ZM239.348 260.531L239.874 264.497L231.11 265.66L230.583 261.695L230.056 257.73L238.821 256.566L239.348 260.531ZM230.583 261.695L234.145 263.516L232.091 267.533L228.529 265.713L224.968 263.892L227.021 259.874L230.583 261.695ZM228.529 265.713L232.08 267.555C231.481 268.709 230.876 269.797 230.375 270.626C230.131 271.032 229.877 271.433 229.64 271.765C229.53 271.92 229.362 272.148 229.157 272.374C229.06 272.481 228.874 272.679 228.618 272.883C228.502 272.976 227.759 273.595 226.601 273.748L226.074 269.783L225.548 265.818C224.903 265.904 224.431 266.128 224.191 266.258C223.929 266.4 223.737 266.543 223.626 266.631C223.409 266.805 223.269 266.957 223.224 267.007C223.123 267.119 223.084 267.181 223.124 267.124C223.189 267.033 223.323 266.83 223.525 266.495C223.917 265.844 224.439 264.91 224.979 263.87L228.529 265.713ZM226.074 269.783L226.601 273.748C225.967 273.833 225.464 273.744 225.286 273.71C225.05 273.665 224.858 273.608 224.74 273.57C224.503 273.494 224.297 273.407 224.163 273.348C223.881 273.224 223.576 273.07 223.287 272.917C222.693 272.604 221.917 272.167 221.02 271.645C219.213 270.594 216.767 269.115 213.986 267.398C208.421 263.96 201.433 259.517 195.388 255.524L197.593 252.187L199.797 248.849C205.768 252.792 212.686 257.192 218.19 260.591C220.945 262.292 223.324 263.73 225.043 264.73C225.908 265.233 226.57 265.605 227.015 265.839C227.245 265.96 227.36 266.014 227.389 266.027C227.41 266.036 227.332 266 227.195 265.956C227.127 265.934 226.978 265.889 226.777 265.85C226.635 265.823 226.16 265.737 225.548 265.818L226.074 269.783ZM197.593 252.187L195.394 255.528C174.068 241.492 135.817 214.797 112.911 197.985L115.278 194.76L117.645 191.535C140.454 208.278 178.593 234.894 199.792 248.845L197.593 252.187ZM115.278 194.76L112.923 197.993C110.557 196.271 108.303 194.721 106.592 193.626C105.728 193.073 105.056 192.67 104.601 192.424C104.492 192.365 104.406 192.321 104.343 192.29C104.277 192.257 104.252 192.247 104.261 192.251C104.267 192.253 104.291 192.263 104.329 192.276C104.366 192.289 104.435 192.312 104.528 192.337C104.603 192.356 105.162 192.513 105.911 192.413L105.385 188.448L104.858 184.483C105.682 184.373 106.346 184.543 106.556 184.598C106.86 184.678 107.122 184.777 107.308 184.854C107.685 185.009 108.068 185.204 108.411 185.389C109.114 185.77 109.973 186.292 110.904 186.888C112.784 188.091 115.175 189.737 117.633 191.526L115.278 194.76ZM105.385 188.448L105.911 192.413C106.206 192.374 106.35 192.313 106.016 192.415C105.809 192.477 105.509 192.574 105.114 192.706C104.33 192.97 103.261 193.344 101.993 193.798C99.4616 194.704 96.2016 195.904 92.9673 197.118C89.7321 198.332 86.5419 199.552 84.1482 200.497C82.9468 200.972 81.9714 201.367 81.2985 201.653C80.9554 201.8 80.7337 201.899 80.6136 201.957C80.546 201.989 80.5681 201.981 80.6365 201.942C80.6664 201.925 80.774 201.862 80.9128 201.762C80.9277 201.751 81.4592 201.395 81.892 200.73L78.5387 198.549L75.1855 196.368C75.6289 195.687 76.183 195.31 76.2323 195.274C76.4056 195.149 76.5593 195.058 76.6467 195.008C76.8301 194.902 77.0125 194.812 77.1478 194.747C77.4334 194.609 77.7871 194.454 78.1655 194.292C78.9358 193.965 79.9882 193.539 81.2097 193.057C83.6618 192.088 86.8985 190.851 90.1566 189.628C93.4158 188.405 96.7159 187.19 99.2969 186.266C100.585 185.805 101.71 185.41 102.569 185.122C102.996 184.979 103.379 184.854 103.695 184.759C103.883 184.702 104.387 184.545 104.858 184.483L105.385 188.448ZM78.5387 198.549L81.1763 201.556C82.2584 200.607 82.4518 199.432 82.4885 198.947C82.528 198.425 82.4455 198.037 82.4129 197.897C82.3422 197.594 82.2568 197.445 82.2884 197.508C82.3263 197.585 82.4627 197.818 82.6882 198.101L79.559 200.592L76.4298 203.084C75.9198 202.444 75.4546 201.735 75.1205 201.061C74.9661 200.749 74.7521 200.272 74.6222 199.715C74.56 199.449 74.4652 198.952 74.5113 198.344C74.5545 197.772 74.7733 196.531 75.9011 195.542L78.5387 198.549ZM79.559 200.592L82.7285 198.152C85.3435 201.549 109.148 233.357 132.316 264.367C143.908 279.884 155.354 295.216 163.929 306.722C168.217 312.474 171.788 317.272 174.303 320.658C175.559 322.35 176.554 323.693 177.243 324.627C177.586 325.093 177.858 325.462 178.049 325.725C178.143 325.855 178.224 325.967 178.287 326.055C178.317 326.098 178.352 326.147 178.385 326.195C178.401 326.219 178.426 326.255 178.453 326.297C178.463 326.312 178.542 326.431 178.625 326.584L175.114 328.499L171.602 330.414C171.741 330.669 171.905 330.884 171.768 330.692C171.731 330.64 171.669 330.555 171.58 330.432C171.404 330.191 171.145 329.837 170.804 329.374C170.123 328.452 169.135 327.117 167.88 325.427C165.37 322.047 161.802 317.254 157.515 311.503C148.942 300 137.499 284.67 125.907 269.155C102.706 238.101 78.9579 206.369 76.3894 203.032L79.559 200.592ZM175.114 328.499L178.625 326.584C178.819 326.939 179.144 327.591 179.272 328.415C179.421 329.382 179.299 330.672 178.417 331.824C177.656 332.818 176.68 333.235 176.163 333.414C175.606 333.607 175.059 333.699 174.654 333.753L174.127 329.787L173.601 325.822C173.798 325.796 173.731 325.79 173.543 325.855C173.394 325.907 172.673 326.167 172.065 326.961C171.334 327.915 171.262 328.964 171.366 329.637C171.411 329.93 171.485 330.141 171.526 330.246C171.549 330.303 171.568 330.346 171.58 330.371C171.593 330.397 171.601 330.412 171.602 330.414L175.114 328.499ZM174.127 329.787L174.654 333.753C173.74 333.874 172.571 334.264 171.686 334.724C171.48 334.83 171.318 334.927 171.198 335.006C171.072 335.088 171.029 335.129 171.042 335.117C171.051 335.109 171.09 335.073 171.145 335.008C171.199 334.945 171.291 334.83 171.389 334.66C171.566 334.357 171.928 333.598 171.789 332.549L167.823 333.076L163.858 333.602C163.683 332.286 164.126 331.235 164.482 330.625C164.844 330.004 165.291 329.535 165.645 329.211C166.359 328.559 167.215 328.031 168.001 327.623C169.583 326.802 171.638 326.083 173.601 325.822L174.127 329.787ZM167.823 333.076L171.789 332.549C171.757 332.308 171.71 332.166 171.722 332.208C171.725 332.217 171.741 332.268 171.778 332.371C171.852 332.573 171.969 332.867 172.129 333.24C172.448 333.981 172.884 334.91 173.353 335.826L169.792 337.648L166.232 339.47C165.689 338.41 165.176 337.321 164.781 336.403C164.585 335.947 164.404 335.501 164.26 335.105C164.158 334.826 163.94 334.221 163.858 333.602L167.823 333.076ZM169.792 337.648L173.371 335.861C173.889 336.898 174.373 337.891 174.738 338.672C174.919 339.058 175.084 339.422 175.213 339.725C175.276 339.874 175.345 340.044 175.407 340.213C175.426 340.266 175.595 340.704 175.664 341.226L171.699 341.752L167.734 342.279C167.773 342.572 167.837 342.784 167.849 342.826C167.871 342.9 167.888 342.947 167.891 342.953C167.895 342.965 167.884 342.935 167.847 342.846C167.774 342.674 167.656 342.411 167.491 342.06C167.167 341.367 166.716 340.441 166.214 339.435L169.792 337.648ZM171.699 341.752L175.664 341.226C175.965 343.495 174.402 344.875 174.155 345.099C173.653 345.551 173.072 345.909 172.593 346.179C171.583 346.75 170.082 347.454 168.014 348.352C163.825 350.172 156.735 353.036 145.174 357.631L143.697 353.913L142.22 350.196C153.811 345.589 160.776 342.774 164.826 341.014C166.878 340.123 168.043 339.562 168.656 339.215C168.988 339.027 168.958 339.013 168.798 339.157C168.715 339.231 168.448 339.48 168.198 339.911C167.932 340.369 167.591 341.206 167.734 342.279L171.699 341.752ZM143.697 353.913L145.179 357.629C87.0498 380.82 53.8132 394.457 45.2314 398.478L43.534 394.856L41.8366 391.234C50.689 387.086 84.2158 373.338 142.215 350.198L143.697 353.913ZM43.534 394.856L45.2357 398.476C43.3314 399.372 41.9141 400.169 40.9032 400.874C39.8611 401.601 39.4581 402.088 39.3351 402.287C39.2824 402.372 39.4161 402.142 39.3419 401.821C39.3021 401.648 39.2899 401.863 39.896 402.458L37.0926 405.312L34.2893 408.165C33.0944 406.991 31.9776 405.489 31.5463 403.617C31.0805 401.596 31.5357 399.686 32.5342 398.074C33.4625 396.575 34.8404 395.349 36.3259 394.313C37.8426 393.255 39.6994 392.239 41.8324 391.236L43.534 394.856ZM37.0926 405.312L39.8514 402.415C40.3906 402.929 41.1104 403.41 43.1522 403.705C45.3816 404.028 48.7568 404.067 54.3512 403.835L54.5166 407.832L54.682 411.829C49.1038 412.059 45.0531 412.063 42.0067 411.623C38.7726 411.155 36.3668 410.144 34.3338 408.208L37.0926 405.312ZM54.5166 407.832L54.3489 403.836L64.8436 403.395L65.0113 407.392L65.179 411.388L54.6843 411.828L54.5166 407.832ZM65.0113 407.392L63.5739 403.659L84.6251 395.553L86.0625 399.286L87.4999 403.018L66.4487 411.124L65.0113 407.392ZM86.0625 399.286L84.6243 395.553C96.207 391.09 111.471 385.117 118.594 382.332L120.051 386.057L121.507 389.783C114.391 392.565 99.106 398.547 87.5007 403.018L86.0625 399.286ZM120.051 386.057L118.594 382.332C125.873 379.486 137.694 374.928 145.461 371.888L146.919 375.613L148.377 379.338C140.869 382.276 128.468 387.061 121.507 389.783L120.051 386.057ZM146.919 375.613L145.461 371.888C153.208 368.857 166.161 363.851 174.657 360.522L176.116 364.247L177.575 367.971C169.244 371.235 155.904 376.392 148.377 379.338L146.919 375.613ZM176.116 364.247L174.654 360.523L189.862 354.555L191.323 358.278L192.785 362.002L177.577 367.97L176.116 364.247ZM191.323 358.278L192.284 354.395L202.492 356.921L201.531 360.804L200.57 364.687L190.363 362.161L191.323 358.278ZM201.531 360.804L202.515 356.927C222.479 361.992 259.465 369.637 280.495 373.006L279.863 376.955L279.23 380.905C257.965 377.499 220.745 369.806 200.547 364.681L201.531 360.804ZM279.863 376.955L280.505 373.007C290.454 374.626 290.233 374.694 322.805 373.983L322.892 377.982L322.98 381.981C290.516 382.689 290.009 382.659 279.22 380.903L279.863 376.955ZM322.892 377.982L322.807 373.983C343.477 373.541 346.681 373.305 361.447 371.21L362.008 375.171L362.57 379.131C347.398 381.284 343.858 381.535 322.978 381.981L322.892 377.982ZM362.008 375.171L361.453 371.209C370.534 369.935 379.633 368.521 381.833 368.04L382.687 371.948L383.541 375.856C380.977 376.416 371.529 377.874 362.564 379.132L362.008 375.171ZM382.687 371.948L381.833 368.04C382.528 367.888 383.177 367.75 383.721 367.647C384.185 367.56 384.847 367.443 385.442 367.429C385.614 367.425 385.872 367.426 386.171 367.463C386.418 367.494 386.997 367.581 387.636 367.917C388.346 368.29 389.448 369.167 389.747 370.77C390.009 372.179 389.462 373.237 389.22 373.638C388.754 374.41 388.118 374.872 387.983 374.972C387.717 375.172 387.435 375.351 387.185 375.502C385.396 376.581 380.748 378.815 372.441 382.796L370.712 379.189L368.983 375.582C377.576 371.464 381.694 369.471 383.056 368.65C383.2 368.563 383.225 368.541 383.182 368.573C383.16 368.59 383.075 368.654 382.962 368.762C382.873 368.847 382.617 369.097 382.372 369.502C382.162 369.851 381.626 370.865 381.882 372.236C382.174 373.802 383.25 374.649 383.916 374.999C384.511 375.312 385.028 375.383 385.194 375.403C385.414 375.431 385.575 375.428 385.632 375.427C385.769 375.424 385.7 375.415 385.201 375.509C384.782 375.588 384.235 375.704 383.541 375.856L382.687 371.948ZM370.712 379.189L372.435 382.799C356.433 390.438 306.123 414.546 283.665 425.357L281.93 421.753L280.196 418.149C302.661 407.334 352.979 383.222 368.989 375.579L370.712 379.189ZM281.93 421.753L283.643 425.368C275.071 429.43 261.083 436.181 252.423 440.333L250.693 436.726L248.964 433.12C257.587 428.985 271.624 422.211 280.218 418.138L281.93 421.753ZM250.693 436.726L252.423 440.333C248.104 442.404 242.425 445.132 236.744 447.861C231.065 450.589 225.383 453.319 221.061 455.391L219.331 451.784L217.602 448.178C221.921 446.107 227.6 443.379 233.28 440.65C238.96 437.921 244.642 435.192 248.964 433.12L250.693 436.726ZM219.331 451.784L221.061 455.391C212.439 459.525 198.401 466.3 189.882 470.36L188.161 466.749L186.44 463.138C194.954 459.081 208.941 452.33 217.602 448.178L219.331 451.784ZM188.161 466.749L189.898 470.352C181.104 474.593 170.824 479.49 166.152 481.743L164.414 478.141L162.676 474.538C166.963 472.47 178.07 467.174 186.424 463.146L188.161 466.749ZM164.414 478.141L166.151 481.744L157.96 485.691L156.224 482.088L154.487 478.484L162.678 474.537L164.414 478.141ZM156.224 482.088L154.182 485.528L150.339 483.246L152.38 479.807L154.422 476.367L158.265 478.648L156.224 482.088ZM152.38 479.807L150.403 483.284C148.23 482.049 141.852 478.313 136.152 474.912L138.202 471.477L140.251 468.042C145.938 471.435 152.259 475.136 154.357 476.329L152.38 479.807ZM138.202 471.477L136.143 474.906C131.745 472.266 129.244 470.851 127.639 470.114C126.859 469.756 126.445 469.631 126.24 469.587C126.1 469.557 126.072 469.565 126.034 469.57L125.507 465.605L124.981 461.64C127.007 461.371 128.803 461.845 130.978 462.844C133.052 463.797 135.929 465.447 140.261 468.047L138.202 471.477ZM125.507 465.605L126.034 469.57C124.88 469.723 118.603 471.043 112.298 472.435C109.211 473.116 106.211 473.794 103.976 474.318C102.855 474.581 101.947 474.8 101.323 474.96C101.004 475.042 100.797 475.098 100.684 475.132C100.619 475.151 100.641 475.146 100.709 475.122C100.735 475.112 100.852 475.069 101.006 474.996C101.081 474.96 101.233 474.884 101.417 474.766C101.53 474.694 101.998 474.395 102.424 473.838L99.2479 471.407L96.0718 468.975C96.5019 468.414 96.9762 468.11 97.0985 468.032C97.291 467.908 97.4558 467.826 97.5455 467.783C97.7287 467.695 97.8862 467.636 97.963 467.608C98.1322 467.546 98.2987 467.495 98.4176 467.46C98.6727 467.384 98.9922 467.299 99.338 467.211C100.042 467.03 101.013 466.796 102.15 466.529C104.432 465.994 107.468 465.308 110.574 464.623C116.655 463.281 123.392 461.851 124.981 461.64L125.507 465.605ZM99.2479 471.407L101.492 474.718C102.277 474.186 102.864 473.379 103.114 472.427C103.338 471.577 103.229 470.863 103.132 470.464C102.953 469.732 102.607 469.243 102.531 469.134C102.309 468.816 102.092 468.612 102.075 468.595C101.973 468.497 101.912 468.451 101.97 468.498C102.05 468.563 102.222 468.695 102.513 468.91C103.079 469.328 103.932 469.94 105.022 470.711C107.194 472.247 110.219 474.353 113.556 476.667L111.277 479.954L108.997 483.241C105.66 480.927 102.608 478.802 100.403 477.242C99.3044 476.466 98.3945 475.814 97.7589 475.344C97.4494 475.115 97.162 474.898 96.9406 474.719C96.847 474.644 96.6745 474.503 96.5036 474.337C96.4511 474.286 96.2099 474.055 95.9743 473.718C95.8909 473.598 95.5409 473.102 95.3604 472.363C95.2623 471.961 95.1534 471.245 95.3776 470.392C95.6285 469.438 96.2166 468.629 97.0037 468.096L99.2479 471.407ZM111.277 479.954L113.525 476.646C126.87 485.718 134.971 491.949 140.467 497.555L137.611 500.355L134.755 503.155C129.856 498.159 122.327 492.303 109.028 483.262L111.277 479.954ZM137.611 500.355L140.455 497.542C143.238 500.356 145.436 501.671 148.6 502.247C152.1 502.885 157.003 502.664 165.345 501.556L165.871 505.522L166.398 509.487C158.081 510.591 152.039 511.006 147.165 510.118C141.957 509.168 138.354 506.794 134.767 503.168L137.611 500.355ZM165.871 505.522L165.318 501.56C175.177 500.183 176.784 499.756 180.381 498.104L182.05 501.739L183.719 505.374C178.974 507.554 176.352 508.097 166.425 509.483L165.871 505.522ZM182.05 501.739L180.431 498.082C183.061 496.917 193.038 492.406 202.583 488.132L204.217 491.783L205.852 495.434C196.374 499.677 186.312 504.227 183.669 505.397L182.05 501.739ZM204.217 491.783L202.584 488.131C230.09 475.832 261.066 461.984 316.96 436.861L318.6 440.509L320.24 444.157C264.339 469.284 233.358 483.135 205.85 495.434L204.217 491.783ZM318.6 440.509L316.963 436.859C335.721 428.447 436.246 383.1 448.004 377.793L449.649 381.439L451.295 385.085C439.542 390.39 339.005 435.741 320.237 444.159L318.6 440.509ZM449.649 381.439L447.98 377.804C448.916 377.374 450.818 376.357 453.126 376.8C454.159 376.999 455.045 377.433 455.753 377.829C456.468 378.23 457.292 378.763 458.199 379.355L456.013 382.705L453.827 386.054C452.87 385.43 452.28 385.053 451.844 384.809C451.4 384.561 451.397 384.615 451.617 384.657C451.753 384.683 451.912 384.694 452.073 384.682C452.224 384.671 452.314 384.644 452.312 384.645C452.219 384.673 452.021 384.751 451.318 385.074L449.649 381.439ZM456.013 382.705L458.141 379.318C459.082 379.909 459.817 380.339 460.38 380.635C460.986 380.954 461.216 381.022 461.193 381.016C461.177 381.012 460.917 380.94 460.508 380.961C460.073 380.982 459.294 381.121 458.543 381.728C457.767 382.354 457.438 383.14 457.319 383.683C457.212 384.17 457.256 384.515 457.265 384.581L461.23 384.054L465.196 383.528C465.28 384.161 465.489 386.402 463.567 387.953C461.779 389.396 459.733 388.904 459.156 388.752C457.631 388.351 455.771 387.276 453.885 386.092L456.013 382.705ZM461.23 384.054L457.265 384.581C456.978 382.417 457.978 380.663 458.826 379.597C459.726 378.464 460.912 377.509 462.121 376.738C464.547 375.19 467.737 373.954 470.942 373.488L471.519 377.446L472.095 381.404C470.024 381.706 467.905 382.537 466.424 383.482C465.679 383.958 465.262 384.356 465.089 384.574C464.862 384.859 465.319 384.454 465.196 383.528L461.23 384.054ZM471.519 377.446L470.992 373.481L472.932 373.223L473.459 377.188L473.986 381.153L472.045 381.411L471.519 377.446ZM473.459 377.188L476.686 379.552L474.035 383.172L470.808 380.808L467.581 378.445L470.232 374.825L473.459 377.188ZM470.808 380.808L474.079 383.111C472.117 385.898 471.188 387.87 470.905 389.057C470.769 389.628 470.849 389.744 470.805 389.579C470.733 389.305 470.517 388.996 470.254 388.828L468.099 392.198L465.944 395.568C464.491 394.639 463.502 393.257 463.07 391.621C462.667 390.092 462.8 388.555 463.123 387.201C463.758 384.538 465.375 381.577 467.537 378.506L470.808 380.808ZM468.099 392.198L470.28 388.844C470.083 388.716 469.813 388.605 469.532 388.566C469.305 388.534 469.235 388.573 469.446 388.534C469.963 388.438 470.951 388.122 472.977 387.302L474.477 391.01L475.978 394.718C473.998 395.519 472.318 396.137 470.908 396.399C469.275 396.703 467.551 396.613 465.918 395.551L468.099 392.198ZM474.477 391.01L473.047 387.275C473.526 387.091 474.376 386.797 475.4 386.807C476.588 386.818 477.619 387.223 478.46 387.829C479.186 388.352 479.734 389.002 480.131 389.519C480.549 390.062 480.985 390.712 481.44 391.411L478.089 393.595L474.737 395.778C474.294 395.098 474.001 394.671 473.785 394.39C473.683 394.256 473.628 394.195 473.612 394.179C473.596 394.163 473.653 394.226 473.78 394.317C473.915 394.414 474.132 394.546 474.429 394.649C474.734 394.756 475.042 394.804 475.326 394.806C475.827 394.811 476.109 394.669 475.908 394.746L474.477 391.01ZM478.089 393.595L481.455 391.435C482.382 392.879 484.022 394.51 486.064 395.923C488.101 397.332 490.247 398.322 492.008 398.716L491.134 402.62L490.26 406.523C487.249 405.849 484.161 404.334 481.512 402.502C478.868 400.672 476.371 398.326 474.722 395.754L478.089 393.595ZM491.134 402.62L492.053 398.727C492.67 398.872 494.32 399.014 496.94 399.043C499.421 399.07 502.428 398.997 505.515 398.842C511.825 398.525 517.955 397.891 520.581 397.221L521.57 401.097L522.559 404.973C519.061 405.865 512.186 406.516 505.917 406.832C502.714 406.993 499.537 407.072 496.853 407.043C494.308 407.015 491.812 406.89 490.214 406.513L491.134 402.62ZM521.57 401.097L520.697 397.194C523.067 396.664 532.681 394.908 541.978 393.334L542.646 397.277L543.313 401.221C533.966 402.804 524.569 404.525 522.443 405.001L521.57 401.097ZM542.646 397.277L541.998 393.33C547.442 392.438 551.82 391.654 554.998 391C556.59 390.672 557.838 390.385 558.749 390.142C559.795 389.863 560.046 389.729 559.926 389.795L561.862 393.296L563.797 396.797C562.948 397.266 561.798 397.608 560.811 397.871C559.69 398.17 558.275 398.492 556.612 398.835C553.278 399.522 548.777 400.326 543.293 401.225L542.646 397.277ZM561.862 393.296L560.021 389.745C561.504 388.976 564.422 386.788 567.406 384.202C568.845 382.955 570.208 381.694 571.313 380.587C572.476 379.42 573.171 378.604 573.434 378.209L576.765 380.423L580.096 382.638C579.365 383.737 578.186 385.024 576.976 386.237C575.708 387.508 574.198 388.902 572.645 390.247C569.645 392.847 566.105 395.602 563.702 396.847L561.862 393.296ZM576.765 380.423L573.408 378.248C574.231 376.978 575.316 374.293 576.212 371.107C577.101 367.949 577.623 364.94 577.622 363.167L581.622 363.166L585.622 363.164C585.623 366.02 584.876 369.853 583.914 373.273C582.96 376.664 581.616 380.293 580.122 382.598L576.765 380.423ZM581.622 363.166L577.622 363.155C577.631 360.051 576.963 357.374 573.667 350.233L577.299 348.557L580.931 346.881C584.327 354.238 585.636 358.244 585.622 363.177L581.622 363.166ZM577.299 348.557L573.648 350.191C572.355 347.301 570.965 345.363 569.466 344.039C568 342.744 566.252 341.879 563.974 341.399L564.799 337.485L565.625 333.571C569.091 334.302 572.14 335.727 574.762 338.043C577.351 340.33 579.339 343.321 580.95 346.923L577.299 348.557ZM564.799 337.485L563.885 341.379C562.792 341.122 561.759 340.841 560.953 340.578C560.567 340.452 560.137 340.299 559.752 340.125C559.577 340.046 559.267 339.898 558.94 339.678C558.782 339.571 558.49 339.36 558.189 339.036C557.948 338.775 557.294 338.015 557.133 336.801L561.098 336.274L565.063 335.748C564.98 335.123 564.765 334.637 564.58 334.312C564.394 333.986 564.196 333.748 564.054 333.595C563.781 333.301 563.529 333.123 563.422 333.051C563.295 332.965 563.194 332.91 563.147 332.884C563.094 332.857 563.06 332.841 563.05 332.836C563.044 332.833 563.155 332.881 563.436 332.973C563.965 333.145 564.768 333.369 565.713 333.591L564.799 337.485ZM561.098 336.274L557.133 336.801C556.86 334.744 558.201 333.501 558.327 333.379C558.674 333.043 559.006 332.844 559.128 332.772C559.417 332.603 559.684 332.492 559.806 332.442C560.098 332.324 560.431 332.212 560.733 332.115C561.368 331.913 562.237 331.663 563.251 331.386C565.295 330.826 568.099 330.109 571.186 329.357L572.134 333.243L573.081 337.129C570.035 337.872 567.308 338.57 565.361 339.102C564.38 339.371 563.638 339.586 563.164 339.737C562.912 339.817 562.817 339.854 562.82 339.853C562.827 339.85 562.859 339.837 562.907 339.815C562.948 339.796 563.046 339.749 563.172 339.675C563.259 339.624 563.564 339.444 563.893 339.125C564.002 339.02 565.335 337.791 565.063 335.748L561.098 336.274ZM572.134 333.243L571.224 329.348C577.394 327.906 590.873 324.643 601.713 322.099L602.626 325.994L603.54 329.888C592.987 332.364 579.024 335.74 573.044 337.138L572.134 333.243ZM602.626 325.994L601.689 322.105C612.434 319.515 633.516 314.873 648.455 311.798L649.262 315.716L650.068 319.634C635.184 322.698 614.194 327.319 603.564 329.882L602.626 325.994ZM649.262 315.716L648.447 311.8C711.778 298.625 782.638 282.414 811.076 274.572L812.139 278.428L813.203 282.284C784.499 290.2 713.424 306.454 650.076 319.632L649.262 315.716ZM812.139 278.428L811.069 274.574C832.549 268.606 846.25 261.218 863.319 246.344L865.947 249.36L868.575 252.375C850.617 268.024 835.855 275.991 813.21 282.282L812.139 278.428ZM865.947 249.36L863.314 246.349C868.391 241.908 872.314 237.909 875.014 234.529C877.827 231.008 878.918 228.635 879.093 227.396L883.054 227.956L887.015 228.516C886.523 231.996 884.246 235.789 881.265 239.522C878.17 243.396 873.874 247.741 868.581 252.37L865.947 249.36ZM883.054 227.956L879.093 227.399C879.533 224.271 878.781 222.3 877.059 220.686L879.795 217.768L882.53 214.849C886.408 218.483 887.766 223.176 887.015 228.513L883.054 227.956ZM879.795 217.768L877.056 220.683C875.997 219.688 872.939 217.808 868.275 215.525C863.786 213.329 858.255 210.971 852.664 208.952L854.023 205.19L855.381 201.428C861.233 203.541 867.032 206.01 871.791 208.339C876.374 210.582 880.481 212.924 882.534 214.852L879.795 217.768ZM854.023 205.19L852.659 208.95C849.981 207.979 847.239 206.896 844.957 205.93C842.776 205.006 840.745 204.077 839.675 203.423L841.76 200.01L843.846 196.597C844.332 196.893 845.821 197.608 848.077 198.563C850.231 199.475 852.842 200.507 855.386 201.43L854.023 205.19ZM807.387 191.366L806.907 195.337C780.755 192.173 770.754 191.959 755.714 193.956L755.188 189.991L754.661 186.026C770.665 183.9 781.43 184.197 807.867 187.395L807.387 191.366ZM755.188 189.991L755.714 193.956C746.487 195.181 720.73 199.819 704.038 203.192L703.246 199.271L702.453 195.35C719.179 191.971 745.154 187.288 754.661 186.026L755.188 189.991ZM703.246 199.271L704.047 203.19C682.245 207.651 642.004 216.124 630.006 218.803L629.134 214.9L628.262 210.996C640.333 208.3 680.631 199.815 702.444 195.352L703.246 199.271ZM629.134 214.9L630.014 218.801C622.078 220.592 614.346 222.26 612.911 222.451L612.385 218.485L611.858 214.52C611.857 214.52 611.868 214.519 611.897 214.514C611.925 214.51 611.961 214.504 612.009 214.496C612.105 214.48 612.229 214.457 612.384 214.428C612.693 214.37 613.095 214.292 613.583 214.193C614.558 213.996 615.842 213.727 617.348 213.404C620.36 212.758 624.232 211.905 628.253 210.998L629.134 214.9ZM612.385 218.485L612.911 222.451L610.77 222.735L610.244 218.77L609.717 214.805L611.858 214.52L612.385 218.485ZM610.244 218.77L606.361 217.806L606.938 215.483L610.82 216.446L614.702 217.41L614.126 219.733L610.244 218.77ZM610.82 216.446L607.008 215.234C606.997 215.268 607.062 215.031 607.233 214.299C607.384 213.655 607.587 212.764 607.836 211.649C608.334 209.423 609.01 206.338 609.817 202.617C611.43 195.177 613.56 185.216 615.817 174.538L619.731 175.365L623.645 176.193C621.385 186.88 619.252 196.855 617.635 204.312C616.827 208.04 616.146 211.144 615.643 213.395C615.172 215.502 614.797 217.138 614.632 217.658L610.82 216.446ZM619.731 175.365L615.82 174.524C619.467 157.577 621.492 147.897 622.497 142.327C623.005 139.512 623.222 137.912 623.278 137.007C623.306 136.549 623.28 136.452 623.295 136.55C623.311 136.654 623.416 137.27 623.966 137.914L627.009 135.318L630.052 132.722C630.824 133.627 631.095 134.631 631.204 135.348C631.312 136.06 631.306 136.8 631.262 137.501C631.175 138.912 630.882 140.912 630.37 143.748C629.336 149.478 627.279 159.302 623.641 176.207L619.731 175.365ZM627.009 135.318L623.946 137.891C623.96 137.907 623.859 137.794 623.547 137.46C623.272 137.167 622.894 136.766 622.42 136.268C621.474 135.274 620.167 133.911 618.591 132.277C615.441 129.012 611.231 124.679 606.713 120.08L609.566 117.277L612.42 114.474C621.392 123.606 629.376 131.917 630.071 132.745L627.009 135.318ZM609.566 117.277L606.713 120.081L590.26 103.338L593.113 100.534L595.966 97.7305L612.419 114.473L609.566 117.277ZM593.113 100.534L593.64 104.499L581.865 106.063L581.338 102.098L580.812 98.1326L592.587 96.569L593.113 100.534ZM581.338 102.098L581.865 106.063C577.263 106.674 574.482 107.096 572.912 107.42C572.056 107.597 571.875 107.685 571.986 107.634C572.041 107.61 572.187 107.541 572.375 107.413C572.55 107.295 572.89 107.041 573.217 106.605C573.566 106.139 573.928 105.419 573.969 104.491C574.01 103.566 573.715 102.82 573.413 102.328L570.004 104.42L566.594 106.511C566.249 105.949 565.933 105.133 565.977 104.136C566.021 103.138 566.411 102.347 566.814 101.809C567.498 100.895 568.387 100.482 568.692 100.344C569.464 99.9953 570.419 99.7662 571.294 99.5855C573.188 99.1944 576.247 98.7387 580.812 98.1326L581.338 102.098ZM841.76 200.01L839.593 203.372C835.553 200.768 828.45 198.526 816.377 196.632L816.997 192.68L817.617 188.729C829.831 190.645 838.379 193.072 843.927 196.648L841.76 200.01ZM816.997 192.68L816.377 196.632C813.49 196.179 810.341 195.749 806.911 195.337L807.387 191.366L807.863 187.394C811.372 187.815 814.618 188.258 817.617 188.729L816.997 192.68Z" fill="black" fill-opacity="0.56" mask="url(#path-1-inside-1_10_87)"/>
</g>
</g>
<g clip-path="url(#clip1_10_87)">
<g filter="url(#filter2_d_10_87)">
<path d="M688.513 467.43C673.243 452.477 647.375 460.682 643.552 481.694C635.898 482.804 630 489.41 630 497.367C630 506.1 637.105 513.204 645.837 513.204H693.808C706.596 513.204 717 502.801 717 490.013C717 475.157 703.115 464.016 688.513 467.43Z" fill="url(#paint1_linear_10_87)"/>
</g>
</g>
<g clip-path="url(#clip2_10_87)">
<g filter="url(#filter3_d_10_87)">
<path d="M412.513 596.43C397.243 581.477 371.375 589.682 367.552 610.694C359.898 611.804 354 618.41 354 626.367C354 635.1 361.105 642.204 369.837 642.204H417.808C430.596 642.204 441 631.801 441 619.013C441 604.157 427.115 593.016 412.513 596.43Z" fill="url(#paint2_linear_10_87)"/>
</g>
</g>
<g clip-path="url(#clip3_10_87)">
<g filter="url(#filter4_d_10_87)">
<path d="M182.513 606.43C167.243 591.477 141.375 599.682 137.552 620.694C129.898 621.804 124 628.41 124 636.367C124 645.1 131.105 652.204 139.837 652.204H187.808C200.596 652.204 211 641.801 211 629.013C211 614.157 197.115 603.016 182.513 606.43Z" fill="url(#paint3_linear_10_87)"/>
</g>
</g>
<g clip-path="url(#clip4_10_87)">
<g filter="url(#filter5_d_10_87)">
<path d="M612.513 571.43C597.243 556.477 571.375 564.682 567.552 585.694C559.898 586.804 554 593.41 554 601.367C554 610.1 561.105 617.204 569.837 617.204H617.808C630.596 617.204 641 606.801 641 594.013C641 579.157 627.115 568.016 612.513 571.43Z" fill="url(#paint4_linear_10_87)"/>
</g>
</g>
<g clip-path="url(#clip5_10_87)">
<g filter="url(#filter6_d_10_87)">
<path d="M832.513 554.43C817.243 539.477 791.375 547.682 787.552 568.694C779.898 569.804 774 576.41 774 584.367C774 593.1 781.105 600.204 789.837 600.204H837.808C850.596 600.204 861 589.801 861 577.013C861 562.157 847.115 551.016 832.513 554.43Z" fill="url(#paint5_linear_10_87)"/>
</g>
</g>
<defs>
<filter id="filter0_d_10_87" x="-20" y="22" width="933.246" height="549.912" filterUnits="userSpaceOnUse" color-interpolation-filters="sRGB">
<feFlood flood-opacity="0" result="BackgroundImageFix"/>
<feColorMatrix in="SourceAlpha" type="matrix" values="0 0 0 0 0 0 0 0 0 0 0 0 0 0 0 0 0 0 127 0" result="hardAlpha"/>
<feOffset dx="-16" dy="4"/>
<feGaussianBlur stdDeviation="2"/>
<feComposite in2="hardAlpha" operator="out"/>
<feColorMatrix type="matrix" values="0 0 0 0 0 0 0 0 0 0 0 0 0 0 0 0 0 0 0.25 0"/>
<feBlend mode="normal" in2="BackgroundImageFix" result="effect1_dropShadow_10_87"/>
<feBlend mode="normal" in="SourceGraphic" in2="effect1_dropShadow_10_87" result="shape"/>
</filter>
<filter id="filter1_d_10_87" x="16.3636" y="100.534" width="866.851" height="424.066" filterUnits="userSpaceOnUse" color-interpolation-filters="sRGB">
<feFlood flood-opacity="0" result="BackgroundImageFix"/>
<feColorMatrix in="SourceAlpha" type="matrix" values="0 0 0 0 0 0 0 0 0 0 0 0 0 0 0 0 0 0 127 0" result="hardAlpha"/>
<feOffset dx="-14" dy="13"/>
<feGaussianBlur stdDeviation="2.5"/>
<feComposite in2="hardAlpha" operator="out"/>
<feColorMatrix type="matrix" values="0 0 0 0 0 0 0 0 0 0 0 0 0 0 0 0 0 0 0.25 0"/>
<feBlend mode="normal" in2="BackgroundImageFix" result="effect1_dropShadow_10_87"/>
<feBlend mode="normal" in="SourceGraphic" in2="effect1_dropShadow_10_87" result="shape"/>
</filter>
<filter id="filter2_d_10_87" x="625" y="458.796" width="96.9998" height="63.4085" filterUnits="userSpaceOnUse" color-interpolation-filters="sRGB">
<feFlood flood-opacity="0" result="BackgroundImageFix"/>
<feColorMatrix in="SourceAlpha" type="matrix" values="0 0 0 0 0 0 0 0 0 0 0 0 0 0 0 0 0 0 127 0" result="hardAlpha"/>
<feOffset dy="4"/>
<feGaussianBlur stdDeviation="2.5"/>
<feComposite in2="hardAlpha" operator="out"/>
<feColorMatrix type="matrix" values="0 0 0 0 0 0 0 0 0 0 0 0 0 0 0 0 0 0 0.25 0"/>
<feBlend mode="normal" in2="BackgroundImageFix" result="effect1_dropShadow_10_87"/>
<feBlend mode="normal" in="SourceGraphic" in2="effect1_dropShadow_10_87" result="shape"/>
</filter>
<filter id="filter3_d_10_87" x="349" y="587.796" width="96.9998" height="63.4085" filterUnits="userSpaceOnUse" color-interpolation-filters="sRGB">
<feFlood flood-opacity="0" result="BackgroundImageFix"/>
<feColorMatrix in="SourceAlpha" type="matrix" values="0 0 0 0 0 0 0 0 0 0 0 0 0 0 0 0 0 0 127 0" result="hardAlpha"/>
<feOffset dy="4"/>
<feGaussianBlur stdDeviation="2.5"/>
<feComposite in2="hardAlpha" operator="out"/>
<feColorMatrix type="matrix" values="0 0 0 0 0 0 0 0 0 0 0 0 0 0 0 0 0 0 0.25 0"/>
<feBlend mode="normal" in2="BackgroundImageFix" result="effect1_dropShadow_10_87"/>
<feBlend mode="normal" in="SourceGraphic" in2="effect1_dropShadow_10_87" result="shape"/>
</filter>
<filter id="filter4_d_10_87" x="119" y="597.796" width="96.9998" height="63.4085" filterUnits="userSpaceOnUse" color-interpolation-filters="sRGB">
<feFlood flood-opacity="0" result="BackgroundImageFix"/>
<feColorMatrix in="SourceAlpha" type="matrix" values="0 0 0 0 0 0 0 0 0 0 0 0 0 0 0 0 0 0 127 0" result="hardAlpha"/>
<feOffset dy="4"/>
<feGaussianBlur stdDeviation="2.5"/>
<feComposite in2="hardAlpha" operator="out"/>
<feColorMatrix type="matrix" values="0 0 0 0 0 0 0 0 0 0 0 0 0 0 0 0 0 0 0.25 0"/>
<feBlend mode="normal" in2="BackgroundImageFix" result="effect1_dropShadow_10_87"/>
<feBlend mode="normal" in="SourceGraphic" in2="effect1_dropShadow_10_87" result="shape"/>
</filter>
<filter id="filter5_d_10_87" x="549" y="562.796" width="96.9998" height="63.4085" filterUnits="userSpaceOnUse" color-interpolation-filters="sRGB">
<feFlood flood-opacity="0" result="BackgroundImageFix"/>
<feColorMatrix in="SourceAlpha" type="matrix" values="0 0 0 0 0 0 0 0 0 0 0 0 0 0 0 0 0 0 127 0" result="hardAlpha"/>
<feOffset dy="4"/>
<feGaussianBlur stdDeviation="2.5"/>
<feComposite in2="hardAlpha" operator="out"/>
<feColorMatrix type="matrix" values="0 0 0 0 0 0 0 0 0 0 0 0 0 0 0 0 0 0 0.25 0"/>
<feBlend mode="normal" in2="BackgroundImageFix" result="effect1_dropShadow_10_87"/>
<feBlend mode="normal" in="SourceGraphic" in2="effect1_dropShadow_10_87" result="shape"/>
</filter>
<filter id="filter6_d_10_87" x="769" y="545.796" width="96.9998" height="63.4085" filterUnits="userSpaceOnUse" color-interpolation-filters="sRGB">
<feFlood flood-opacity="0" result="BackgroundImageFix"/>
<feColorMatrix in="SourceAlpha" type="matrix" values="0 0 0 0 0 0 0 0 0 0 0 0 0 0 0 0 0 0 127 0" result="hardAlpha"/>
<feOffset dy="4"/>
<feGaussianBlur stdDeviation="2.5"/>
<feComposite in2="hardAlpha" operator="out"/>
<feColorMatrix type="matrix" values="0 0 0 0 0 0 0 0 0 0 0 0 0 0 0 0 0 0 0.25 0"/>
<feBlend mode="normal" in2="BackgroundImageFix" result="effect1_dropShadow_10_87"/>
<feBlend mode="normal" in="SourceGraphic" in2="effect1_dropShadow_10_87" result="shape"/>
</filter>
<linearGradient id="paint0_linear_10_87" x1="870.78" y1="236.855" x2="-43.4807" y2="414.91" gradientUnits="userSpaceOnUse">
<stop offset="0.163462" stop-color="#817C44"/>
<stop offset="1" stop-color="#E7DE79"/>
</linearGradient>
<linearGradient id="paint1_linear_10_87" x1="673.5" y1="459.796" x2="673.5" y2="513.204" gradientUnits="userSpaceOnUse">
<stop stop-color="#E7DE79"/>
<stop offset="1" stop-color="#817C44"/>
</linearGradient>
<linearGradient id="paint2_linear_10_87" x1="397.5" y1="588.796" x2="397.5" y2="642.204" gradientUnits="userSpaceOnUse">
<stop stop-color="#E7DE79"/>
<stop offset="1" stop-color="#817C44"/>
</linearGradient>
<linearGradient id="paint3_linear_10_87" x1="167.5" y1="598.796" x2="167.5" y2="652.204" gradientUnits="userSpaceOnUse">
<stop stop-color="#E7DE79"/>
<stop offset="1" stop-color="#817C44"/>
</linearGradient>
<linearGradient id="paint4_linear_10_87" x1="597.5" y1="563.796" x2="597.5" y2="617.204" gradientUnits="userSpaceOnUse">
<stop stop-color="#E7DE79"/>
<stop offset="1" stop-color="#817C44"/>
</linearGradient>
<linearGradient id="paint5_linear_10_87" x1="817.5" y1="546.796" x2="817.5" y2="600.204" gradientUnits="userSpaceOnUse">
<stop stop-color="#E7DE79"/>
<stop offset="1" stop-color="#817C44"/>
</linearGradient>
<clipPath id="clip0_10_87">
<rect width="863.903" height="431.952" fill="white" transform="translate(0 135.719) rotate(-7.56401)"/>
</clipPath>
<clipPath id="clip1_10_87">
<rect width="87" height="87" fill="white" transform="translate(630 443)"/>
</clipPath>
<clipPath id="clip2_10_87">
<rect width="87" height="87" fill="white" transform="translate(354 572)"/>
</clipPath>
<clipPath id="clip3_10_87">
<rect width="87" height="87" fill="white" transform="translate(124 582)"/>
</clipPath>
<clipPath id="clip4_10_87">
<rect width="87" height="87" fill="white" transform="translate(554 547)"/>
</clipPath>
<clipPath id="clip5_10_87">
<rect width="87" height="87" fill="white" transform="translate(774 530)"/>
</clipPath>
</defs>
</svg>
